<svg width="20" height="20" viewBox="0 0 20 20" fill="none" xmlns="http://www.w3.org/2000/svg">
<path d="M1.66667 19.4167C1.2037 19.4167 0.810185 19.2546 0.486111 18.9306C0.162037 18.6065 0 18.213 0 17.75V15.6389L4.44444 11.6944V19.4167H1.66667ZM5.55556 19.4167V14.9722H14.4444V19.4167H5.55556ZM15.5556 19.4167V10.3056L10.8056 6.08333L14.1667 3.11111L19.4444 7.80556C19.6296 7.97222 19.7685 8.16204 19.8611 8.375C19.9537 8.58796 20 8.81481 20 9.05556V17.75C20 18.213 19.838 18.6065 19.5139 18.9306C19.1898 19.2546 18.7963 19.4167 18.3333 19.4167H15.5556ZM0 14.1389V9.05556C0 8.81481 0.0462963 8.58333 0.138889 8.36111C0.231481 8.13889 0.37037 7.9537 0.555556 7.80556L8.88889 0.416667C9.03704 0.268519 9.20833 0.162037 9.40278 0.0972222C9.59722 0.0324074 9.7963 0 10 0C10.2037 0 10.4028 0.0324074 10.5972 0.0972222C10.7917 0.162037 10.963 0.268519 11.1111 0.416667L13.3333 2.38889L0 14.1389Z" fill="#127EED"/>
</svg>
